<svg xmlns="http://www.w3.org/2000/svg" width="77" height="79" viewBox="0 0 77 79" fill="none">
<path fill-rule="evenodd" clip-rule="evenodd" d="M4.01039 56.8134C13.039 72.8842 32.6823 80.4119 50.4743 73.7343C70.1228 66.36 80.073 44.4536 72.6987 24.805C72.6963 24.7988 72.6941 24.7927 72.6917 24.7866L52.6525 34.1311C54.8976 41.8393 50.8525 50.094 43.212 52.9615C36.3422 55.5399 28.7955 52.926 24.8856 47.0791L4.01039 56.8134Z" fill="#FFFFFF"/>
<path fill-rule="evenodd" clip-rule="evenodd" d="M31.6569 0C30.8265 0.107239 29.9962 0.214478 29.1658 0.42897L33.0062 23.1643C33.8365 22.9499 34.6669 22.8426 35.4973 22.7354L31.6569 0ZM30.8265 24.0223C29.8924 24.4513 29.0621 24.8802 28.2317 25.5237L17.1259 5.46936C17.5411 5.20123 17.9822 4.95992 18.4234 4.7186C18.8644 4.47733 19.3055 4.23605 19.7207 3.96797L30.8265 24.0223ZM22.1079 35.6045C22.0042 36.3551 21.9003 37.2131 21.9003 38.071C21.9003 38.737 21.9821 39.3185 22.0729 39.9655C22.0845 40.0478 22.0962 40.1311 22.1079 40.2159H0.103821C0 39.4652 0 38.7145 0 37.9638C0 37.1058 0 36.3551 0.103821 35.6045H22.1079ZM23.7344 45.4279C22.9567 43.9601 22.399 42.3494 22.1079 40.6448L1.3493 48.4735C1.76447 50.1894 2.38727 51.798 3.01001 53.2994L23.561 45.4708L23.4351 45.5823L23.7344 45.4279ZM23.7686 30.6713C23.1459 31.851 22.6269 33.1379 22.3155 34.532L1.66071 26.7033C2.07587 25.4164 2.49103 24.1295 3.01001 22.8426L23.7686 30.6713ZM47.7448 27.454L64.6631 12.7618C65.0782 13.1908 65.4934 13.727 65.8048 14.156L48.8865 28.8482C48.5751 28.4192 48.16 27.883 47.7448 27.454ZM55.0857 4.64117C55.4575 4.85626 55.8567 5.08716 56.2559 5.36212L45.2538 25.2019C44.6314 24.7732 44.009 24.4516 43.3866 24.1301L43.3855 24.1295L54.4914 4.28969C54.6777 4.4052 54.8774 4.52071 55.0857 4.64117ZM9.75653 11.9039L26.7786 26.7033C25.8445 27.5613 25.1179 28.4192 24.3914 29.4916L7.47308 14.6922C8.19965 13.727 8.92621 12.7618 9.75653 11.9039ZM40.5831 23.1643C39.8566 22.9499 39.13 22.8426 38.4034 22.7354L42.2438 0C42.6071 0.0536194 42.9703 0.134048 43.3336 0.214478C43.6969 0.294922 44.0602 0.375351 44.4235 0.42897L40.5831 23.1643Z" fill="#FFFFFF"/>
<rect x="50.9045" y="31.1348" width="22.3" height="1.47" transform="rotate(-30.91 50.9045 31.1348)" fill="#FFFFFF"/>
</svg>